<svg xmlns="http://www.w3.org/2000/svg" viewBox="0 0 64 64" width="64" height="64">
  <defs>
    <linearGradient id="favGrad" x1="0%" y1="0%" x2="100%" y2="100%">
      <stop offset="0%" style="stop-color:#6D4C41"/>
      <stop offset="100%" style="stop-color:#4E342E"/>
    </linearGradient>
  </defs>
  <rect width="64" height="64" rx="12" fill="#FFF8EE"/>
  <!-- Steam -->
  <path d="M24,14 Q21,8 24,4" stroke="#4E342E" stroke-width="2" fill="none" stroke-linecap="round" opacity="0.7"/>
  <path d="M32,12 Q29,6 32,2" stroke="#4E342E" stroke-width="2" fill="none" stroke-linecap="round" opacity="0.7"/>
  <path d="M40,14 Q37,8 40,4" stroke="#4E342E" stroke-width="2" fill="none" stroke-linecap="round" opacity="0.7"/>
  <!-- Cup -->
  <path d="M16,20 L18,48 Q18,52 22,52 L42,52 Q46,52 46,48 L48,20 Z" fill="url(#favGrad)"/>
  <!-- Saucer -->
  <ellipse cx="32" cy="54" rx="18" ry="4" fill="#4E342E"/>
  <!-- Handle -->
  <path d="M46,28 Q56,28 56,36 Q56,44 46,44" stroke="#4E342E" stroke-width="4" fill="none" stroke-linecap="round"/>
  <!-- Coffee surface -->
  <ellipse cx="32" cy="24" rx="14" ry="4" fill="#1A0A06"/>
</svg>
